<svg width="64" height="49" viewBox="0 0 64 49" fill="none" xmlns="http://www.w3.org/2000/svg">
<g clip-path="url(#clip0)">
<path d="M62 45.9492C62 47.6061 57.8528 48.9492 52.7369 48.9492C47.6211 48.9492 46 48.6061 46 46.9492C53.778 47.7447 54.9999 44.6512 54.017 42.9776C54.0113 42.9774 54.0057 42.9771 54 42.9769C53.7945 42.9678 53.8996 42.9609 54.0043 42.9563C54.0029 42.9539 54.0014 42.9516 54 42.9492C54.2153 42.9492 54.11 42.9516 54.0043 42.9563C54.0085 42.9634 54.0128 42.9705 54.017 42.9776C58.5271 43.1795 62 44.433 62 45.9492Z" fill="#DCE1E5"/>
<path fill-rule="evenodd" clip-rule="evenodd" d="M44.0911 38.3809C42.8225 39.9845 42 41.9347 42 43.4495C42 44.2107 42.1629 44.7614 42.4083 45.1717C42.6532 45.5812 43.0174 45.9126 43.5183 46.1779C44.5594 46.7294 46.1025 46.9495 48 46.9495C49.8975 46.9495 51.4406 46.7294 52.4817 46.1779C52.9826 45.9126 53.3468 45.5812 53.5917 45.1717C53.8371 44.7614 54 44.2107 54 43.4495C54 41.9347 53.1775 39.9845 51.9089 38.3809C51.2852 37.5924 50.5863 36.9308 49.8882 36.4736C49.1832 36.0118 48.5376 35.7957 48 35.7957C47.4624 35.7957 46.8168 36.0118 46.1118 36.4736C45.4137 36.9308 44.7148 37.5924 44.0911 38.3809ZM45.016 34.8005C45.9218 34.2072 46.9467 33.7957 48 33.7957C49.0533 33.7957 50.0782 34.2072 50.984 34.8005C51.8967 35.3983 52.7489 36.2191 53.4775 37.14C54.9134 38.9552 56 41.3319 56 43.4495C56 44.5044 55.7711 45.4243 55.3081 46.1984C54.8446 46.9732 54.1837 47.5397 53.4178 47.9453C51.9254 48.7358 49.9685 48.9495 48 48.9495C46.0315 48.9495 44.0746 48.7358 42.5822 47.9453C41.8163 47.5397 41.1554 46.9732 40.6919 46.1984C40.2289 45.4243 40 44.5044 40 43.4495C40 41.3319 41.0866 38.9552 42.5225 37.14C43.2511 36.2191 44.1033 35.3983 45.016 34.8005Z" fill="#8C939C"/>
<path fill-rule="evenodd" clip-rule="evenodd" d="M42.8891 28.9492H53.2143L49.5376 35.4492H46.1062L46.0784 35.3931L41.6775 33.8959L42.3216 32.0025L44.8211 32.8528L42.8891 28.9492ZM47.3479 33.4492H48.3711L49.7852 30.9492H46.1105L47.3479 33.4492Z" fill="#8C939C"/>
<path d="M44.0911 38.3826C42.8225 39.9862 42 41.9364 42 43.4512C42 44.2124 42.1629 44.7631 42.4083 45.1734C42.6532 45.5829 43.0174 45.9144 43.5183 46.1796C44.5594 46.7311 46.1025 46.9512 48 46.9512C49.8975 46.9512 51.4406 46.7311 52.4817 46.1796C52.9826 45.9144 53.3468 45.5829 53.5917 45.1734C47.6651 45.3515 45.3945 40.0487 45 37.375C44.6859 37.6784 44.3804 38.0168 44.0911 38.3826Z" fill="#DCE1E5"/>
<path fill-rule="evenodd" clip-rule="evenodd" d="M47.3478 33.4492H48.371L49.7852 30.9492H46.1105L47.3478 33.4492Z" fill="#DCE1E5"/>
<ellipse cx="11.8" cy="47.9492" rx="4" ry="1" fill="#DCE1E5"/>
<ellipse cx="27.8" cy="47.9492" rx="4" ry="1" fill="#DCE1E5"/>
<path fill-rule="evenodd" clip-rule="evenodd" d="M31.3841 28.8798H14.9389V16.9393H-4.96186C-5.5114 16.9393 -5.9569 16.4938 -5.9569 15.9443C-5.9569 15.3947 -5.5114 14.9492 -4.96186 14.9492H23.3968L32.4641 27.039L36.8199 31.1477V43.8054H31.7721C31.2984 46.629 28.8426 48.7806 25.8844 48.7806C22.9261 48.7806 20.4704 46.629 19.9967 43.8054H13.8709C13.3973 46.6291 10.9415 48.7808 7.98318 48.7808C5.02487 48.7808 2.56911 46.6292 2.09546 43.8055H-6.19995V35.8451C-6.19995 35.2956 -5.75446 34.8501 -5.20491 34.8501C-4.65537 34.8501 -4.20987 35.2956 -4.20987 35.8451V41.8154H2.09551C2.56929 38.9918 5.02498 36.8403 7.98318 36.8403C10.9413 36.8403 13.397 38.9918 13.8708 41.8153H19.9967C20.4704 38.9917 22.9261 36.8401 25.8844 36.8401C28.8426 36.8401 31.2984 38.9917 31.7721 41.8153H34.8298V32.5821L31.3841 28.8798ZM29.8645 26.8897L22.4017 16.9393H16.929V26.8897H29.8645ZM4.00302 42.8106C4.00302 45.0088 5.785 46.7907 7.98318 46.7907C10.1814 46.7907 11.9633 45.0088 11.9633 42.8106C11.9633 40.6124 10.1814 38.8304 7.98318 38.8304C5.785 38.8304 4.00302 40.6124 4.00302 42.8106ZM25.8844 46.7905C23.6862 46.7905 21.9042 45.0085 21.9042 42.8103C21.9042 40.6121 23.6862 38.8302 25.8844 38.8302C28.0826 38.8302 29.8645 40.6121 29.8645 42.8103C29.8645 45.0085 28.0826 46.7905 25.8844 46.7905Z" fill="#1FB6FF"/>
<path fill-rule="evenodd" clip-rule="evenodd" d="M16.929 19.4023V26.8904H24.9905C24.9905 26.8904 20.4472 26.0837 18.9191 24.6642C17.391 23.2448 16.929 19.4023 16.929 19.4023ZM-6.20987 41.816H0.188968C0.188968 41.816 -3.27168 41.7209 -4.15233 40.8547C-6.05846 38.9798 -6.20151 36.2711 -6.20987 35.8788V35.8458C-6.20987 35.8171 -6.2109 35.8302 -6.20987 35.8788V41.816ZM13.8088 41.8163H15.657L13.4713 40.4502L13.8088 41.8163ZM33.4905 41.816H31.6423L31.3048 40.45L33.4905 41.816ZM7.9837 46.7915C5.78552 46.7915 4.00354 45.0095 4.00354 42.8113C4.00354 41.5175 4.62087 40.3679 5.57705 39.6409C5.71492 39.5361 5.79211 39.9932 5.90974 40.6898C6.09468 41.7849 6.37956 43.4719 7.15731 44.4978C7.85771 45.4217 8.70564 45.9223 9.17343 46.1984C9.45753 46.3661 9.60142 46.4511 9.48692 46.4978C9.02311 46.6871 8.51559 46.7915 7.9837 46.7915ZM21.9062 42.8111C21.9062 45.0093 23.6882 46.7912 25.8864 46.7912C26.4183 46.7912 26.9258 46.6869 27.3896 46.4976C27.5041 46.4508 27.3602 46.3659 27.0761 46.1982C26.6083 45.922 25.7604 45.4215 25.06 44.4976C24.2823 43.4716 23.9974 41.7847 23.8125 40.6895C23.6948 39.993 23.6176 39.5359 23.4798 39.6407C22.5236 40.3676 21.9062 41.5173 21.9062 42.8111Z" fill="#A5E1FF"/>
<path fill-rule="evenodd" clip-rule="evenodd" d="M47 0.949219L64 7.74922V48.9492H62V9.10328L49 3.90328V26.4263H47V0.949219Z" fill="#8C939C"/>
<path fill-rule="evenodd" clip-rule="evenodd" d="M46 46.9492H62V48.9492H46V46.9492Z" fill="#8C939C"/>
<ellipse cx="51" cy="22.425" rx="1" ry="2.08904" fill="#8C939C"/>
</g>
<defs>
<clipPath id="clip0">
<path d="M0 0.949219H64V48.9492H0V0.949219Z" fill="white"/>
</clipPath>
</defs>
</svg>
