<svg width="64" height="49" viewBox="0 0 64 49" fill="none" xmlns="http://www.w3.org/2000/svg">
<g clip-path="url(#clip0)">
<path d="M9.18182 46.3984L10.2475 44.5949C10.3195 44.4732 10.4504 44.3984 10.5919 44.3984H26.0162C26.6016 44.3984 27.1769 44.5495 27.6867 44.8371L32.6733 47.65C33.0316 47.8522 32.8881 48.3984 32.4768 48.3984H8.70098C8.39126 48.3984 8.19905 48.0616 8.35661 47.7949L9.18182 46.3984Z" fill="#DCE1E5"/>
<path fill-rule="evenodd" clip-rule="evenodd" d="M26.0911 37.8301C24.8225 39.4337 24 41.3839 24 42.8987C24 43.6599 24.1629 44.2106 24.4083 44.6209C24.6532 45.0304 25.0174 45.3619 25.5183 45.6272C26.5594 46.1786 28.1025 46.3987 30 46.3987C31.8975 46.3987 33.4406 46.1786 34.4817 45.6272C34.9826 45.3619 35.3468 45.0304 35.5917 44.6209C35.8371 44.2106 36 43.6599 36 42.8987C36 41.3839 35.1775 39.4337 33.9089 37.8301C33.2852 37.0416 32.5863 36.38 31.8882 35.9228C31.1832 35.461 30.5376 35.2449 30 35.2449C29.4624 35.2449 28.8168 35.461 28.1118 35.9228C27.4137 36.38 26.7148 37.0416 26.0911 37.8301ZM27.016 34.2497C27.9218 33.6564 28.9467 33.2449 30 33.2449C31.0533 33.2449 32.0782 33.6564 32.984 34.2497C33.8967 34.8475 34.7489 35.6683 35.4775 36.5893C36.9134 38.4045 38 40.7812 38 42.8987C38 43.9537 37.7711 44.8736 37.3081 45.6476C36.8446 46.4224 36.1837 46.9889 35.4178 47.3945C33.9254 48.185 31.9685 48.3987 30 48.3987C28.0315 48.3987 26.0746 48.185 24.5822 47.3945C23.8163 46.9889 23.1554 46.4224 22.6919 45.6476C22.2289 44.8736 22 43.9537 22 42.8987C22 40.7812 23.0866 38.4045 24.5225 36.5893C25.2511 35.6683 26.1033 34.8475 27.016 34.2497Z" fill="#8C939C"/>
<path fill-rule="evenodd" clip-rule="evenodd" d="M24.8891 28.3984H35.2143L31.5376 34.8984H28.1062L28.0784 34.8423L23.6775 33.3452L24.3216 31.4517L26.8211 32.302L24.8891 28.3984ZM29.3479 32.8984H30.3711L31.7852 30.3984H28.1105L29.3479 32.8984Z" fill="#8C939C"/>
<path d="M26.0911 37.8318C24.8225 39.4354 24 41.3857 24 42.9004C24 43.6617 24.1629 44.2123 24.4083 44.6226C24.6532 45.0321 25.0174 45.3636 25.5183 45.6289C26.5594 46.1803 28.1025 46.4004 30 46.4004C31.8975 46.4004 33.4406 46.1803 34.4817 45.6289C34.9826 45.3636 35.3468 45.0321 35.5917 44.6226C29.6651 44.8007 27.3945 39.4979 27 36.8242C26.6859 37.1276 26.3804 37.4661 26.0911 37.8318Z" fill="#DCE1E5"/>
<path fill-rule="evenodd" clip-rule="evenodd" d="M29.3478 32.8984H30.371L31.7852 30.3984H28.1105L29.3478 32.8984Z" fill="#DCE1E5"/>
<path fill-rule="evenodd" clip-rule="evenodd" d="M9.41372 10.9251C10.1505 9.77115 10.5596 8.37939 10.5596 7.44227C10.5596 5.77089 9.21646 4.41597 7.55961 4.41597C5.90275 4.41597 4.55961 5.77089 4.55961 7.44227C4.55961 8.37939 4.96871 9.77115 5.70549 10.9251C6.49188 12.1567 7.21797 12.4861 7.55961 12.4861C7.90125 12.4861 8.62734 12.1567 9.41372 10.9251ZM7.55961 14.5036C10.321 14.5036 12.5596 10.2279 12.5596 7.44227C12.5596 4.65664 10.321 2.39844 7.55961 2.39844C4.79819 2.39844 2.55961 4.65664 2.55961 7.44227C2.55961 10.2279 4.79819 14.5036 7.55961 14.5036Z" fill="#1FB6FF"/>
<path fill-rule="evenodd" clip-rule="evenodd" d="M14.8837 25.4949V21.6704C14.8837 18.3302 12.195 15.6178 8.88375 15.6178H6.05251C2.74128 15.6178 0.0525122 18.3302 0.0525122 21.6704V25.4949L0 27.5774V29.7071C0 31.451 1.44 32.9037 3.16877 32.9037V44.9125C3.16877 46.8494 4.70438 48.3984 6.62438 48.3984H8.20877C10.1288 48.3984 11.6644 46.8494 11.6644 44.9125V32.9037C13.3932 32.9037 14.8332 31.451 14.8332 29.7071V27.5774L14.8837 25.4949ZM11.7131 30.8212C12.2887 30.8212 12.8174 30.337 12.8174 29.7071V21.719C12.8174 19.4909 11.0418 17.6997 8.83306 17.6997L6.09744 17.6959C3.88867 17.6959 2.11306 19.4871 2.11306 21.7153V29.7541C2.11306 30.3348 2.59306 30.8682 3.21744 30.8682H4.27306C4.80183 30.8682 5.28183 31.3051 5.28183 31.8858V44.863C5.28183 45.6366 5.90429 46.2665 6.67306 46.2665H8.25744C9.02429 46.2665 9.64867 45.6385 9.64867 44.863V31.8388C9.64867 31.3054 10.0818 30.8212 10.6574 30.8212H11.7131Z" fill="#1FB6FF"/>
<path d="M5.7035 10.9261C4.96672 9.7722 4.55762 8.38044 4.55762 7.44332C4.55762 6.89278 4.70334 6.37658 4.95801 5.93183C5.26049 7.74878 6.57471 11.2914 9.41173 10.9261C8.62535 12.1578 7.89926 12.4872 7.55762 12.4872C7.21597 12.4872 6.48988 12.1578 5.7035 10.9261Z" fill="#A5E1FF"/>
<path d="M6.67062 46.2675H8.255C8.41877 46.2675 8.57603 46.2389 8.72211 46.1863C8.9527 46.1032 9.15541 45.9605 9.31177 45.7765C6.95801 44.7677 5.27939 34.0547 5.27939 31.8868V44.8641C5.27939 45.6376 5.90185 46.2675 6.67062 46.2675Z" fill="#A5E1FF"/>
<path d="M3.215 30.8692H4.27062C2.67859 30.8692 2.18663 26.6739 2.11062 23.5012V21.7163C2.09695 22.2375 2.09496 22.8477 2.11062 23.5012V29.7551C2.11062 30.3358 2.59062 30.8692 3.215 30.8692Z" fill="#A5E1FF"/>
<path fill-rule="evenodd" clip-rule="evenodd" d="M47.8009 12.357C48.0712 13.2138 48.1001 14.6068 47.762 15.879C47.4011 17.2368 46.8349 17.752 46.5238 17.8526C46.2127 17.9533 45.4566 17.8661 44.3853 16.9718C43.3816 16.1338 42.6077 14.9819 42.3374 14.1251C41.8553 12.5969 42.6876 10.9623 44.1963 10.4741C45.7051 9.9858 47.3189 10.8288 47.8009 12.357ZM49.6221 11.7676C50.4255 14.3145 49.6202 18.8835 47.1057 19.6973C44.5912 20.511 41.3196 17.2614 40.5162 14.7144C39.7128 12.1675 41.0999 9.44316 43.6145 8.6294C46.129 7.81565 48.8187 9.22067 49.6221 11.7676ZM45.3564 20.9301L45.2565 20.9301C44.3916 20.93 43.6939 20.9298 43.1545 21.0317C42.4866 21.1579 42.0043 21.4451 41.5822 21.9647C41.288 22.3267 41.0052 22.8318 40.6787 23.415L40.6787 23.4151C40.6233 23.514 40.5667 23.6152 40.5085 23.7184C40.0835 24.4717 39.5043 25.4705 38.6053 26.8055L38.5937 26.8226L34 34.3151V34.5913C34 34.8534 34.0817 35.0808 34.1478 35.2296C34.2209 35.3945 34.3165 35.5543 34.4198 35.7016C34.6267 35.9966 34.9065 36.3009 35.231 36.5682C35.8417 37.0714 36.8315 37.6158 37.9226 37.3668C38.8514 37.1549 39.4699 36.3656 40.0101 35.5891C40.2445 35.2522 40.5013 34.8572 40.7841 34.4224L40.7842 34.4223C40.8532 34.3162 40.9237 34.2077 40.9959 34.0971C41.309 33.6171 41.6621 33.0817 42.0734 32.4883C42.1407 33.5408 42.1779 35.1294 42.1779 37.4711V48.2897C42.1779 50.4261 43.6582 52.3984 45.7971 52.3984H47.0183C49.1572 52.3984 50.6375 50.4261 50.6375 48.2897V37.4711C50.6375 35.9786 50.6373 35.6508 50.6372 35.4997L50.6371 35.4372V35.4368C50.6369 35.3372 50.6368 35.2498 50.6368 34.5913V27.3511C50.6368 26.9849 50.6431 26.6259 50.6493 26.27L50.6495 26.2593C50.6556 25.9103 50.6617 25.5616 50.6609 25.2274C50.6594 24.5628 50.6318 23.8875 50.4999 23.2862C50.3665 22.6786 50.1066 22.0526 49.5692 21.5896C49.0244 21.1203 48.3253 20.9301 47.5385 20.9301H45.3564ZM36.0385 34.6609L40.1963 27.8795C41.1268 26.4967 41.7301 25.4561 42.1685 24.6791C42.2328 24.565 42.2924 24.459 42.3479 24.3604L42.3491 24.3581L42.3492 24.3581C42.6928 23.7467 42.8779 23.4173 43.0584 23.1953C43.19 23.0332 43.2709 22.9796 43.505 22.9354C43.8471 22.8708 44.3576 22.8666 45.3564 22.8666H47.5385C48.0277 22.8666 48.2343 22.9819 48.3305 23.0647C48.4341 23.1539 48.5503 23.327 48.6335 23.7064C48.7182 24.0921 48.7476 24.5919 48.7491 25.2318C48.7498 25.5465 48.744 25.8787 48.7377 26.2357C48.7315 26.5894 48.7249 26.965 48.7249 27.3511V34.5913C48.7249 35.2522 48.7251 35.339 48.7252 35.4395L48.7253 35.502C48.7255 35.6517 48.7256 35.9782 48.7256 37.4711V48.2897C48.7256 49.6432 47.8389 50.4619 47.0183 50.4619H45.7971C44.9765 50.4619 44.0897 49.6432 44.0897 48.2897V37.4711C44.0897 35.0257 44.0498 33.3488 43.9722 32.2281C43.9336 31.6695 43.8841 31.2245 43.8195 30.8806C43.7633 30.5814 43.6711 30.2044 43.4548 29.916C43.3287 29.7479 43.111 29.5446 42.7813 29.4739C42.4531 29.4034 42.1788 29.4997 42.0094 29.5919C41.7236 29.7475 41.5227 30.0097 41.4319 30.1291C41.3572 30.2273 41.2685 30.3545 41.1934 30.4621L41.1933 30.4622C41.1602 30.5097 41.1298 30.5533 41.1043 30.589C41.0005 30.7347 40.9228 30.8331 40.8605 30.8963L40.8045 30.9529L40.7585 31.0181C40.2223 31.7786 39.7784 32.4506 39.4007 33.0296C39.3235 33.1479 39.2497 33.2614 39.1787 33.3705L39.1787 33.3705C38.898 33.8022 38.6627 34.164 38.4472 34.4737C37.8644 35.3115 37.6238 35.4499 37.5025 35.4776C37.26 35.533 36.8714 35.4235 36.4373 35.0658C36.2748 34.932 36.1384 34.7883 36.0385 34.6609Z" fill="#8C939C"/>
<path d="M44.3848 16.9709C43.3811 16.1329 42.6072 14.981 42.3369 14.1241C41.9657 12.9474 42.3739 11.7075 43.2701 10.9766C43.4603 12.6613 44.5847 16.1247 47.5615 16.5007C47.2152 17.3994 46.7815 17.7682 46.5234 17.8517C46.2123 17.9524 45.4561 17.8652 44.3848 16.9709Z" fill="#DCE1E5"/>
<path d="M36.4368 35.0648C36.2744 34.931 36.1379 34.7873 36.0381 34.6599L38.117 31.2692C37.9794 32.0861 37.9534 33.7199 38.9501 33.7199C38.7658 34.0019 38.6012 34.2507 38.4468 34.4727C37.8639 35.3105 37.6234 35.4489 37.502 35.4766C37.2595 35.5319 36.871 35.4224 36.4368 35.0648Z" fill="#DCE1E5"/>
<path d="M44.0902 37.4702C44.0902 36.5175 44.0841 35.6814 44.0721 34.9495C44.394 40.9863 45.4898 49.5584 48.1412 49.926C47.8222 50.2722 47.4128 50.461 47.0187 50.461H45.7975C44.9769 50.461 44.0902 49.6423 44.0902 48.2889V37.4702Z" fill="#DCE1E5"/>
<path fill-rule="evenodd" clip-rule="evenodd" d="M46 0.398438L63 7.19844V48.3984H61V8.5525L48 3.3525V7.87547H46V0.398438Z" fill="#8C939C"/>
<path fill-rule="evenodd" clip-rule="evenodd" d="M38 46.3984H62V48.3984H38V46.3984Z" fill="#8C939C"/>
</g>
<defs>
<clipPath id="clip0">
<path d="M0 0.398438H64V48.3984H0V0.398438Z" fill="white"/>
</clipPath>
</defs>
</svg>
