<svg width="64" height="49" viewBox="0 0 64 49" fill="none" xmlns="http://www.w3.org/2000/svg">
<g clip-path="url(#clip0)">
<path d="M36 45.0508C36 46.7076 31.7175 48.0508 26.4349 48.0508C21.1522 48.0508 16 47.7076 16 46.0508C18.6087 46.0508 22.0869 44.0508 22.9566 42.2553C24.0347 42.1233 25.2078 42.0508 26.4349 42.0508C31.7175 42.0508 36 43.3939 36 45.0508Z" fill="#DCE1E5"/>
<path fill-rule="evenodd" clip-rule="evenodd" d="M12.0911 37.4824C10.8225 39.0861 10 41.0363 10 42.5511C10 43.3123 10.1629 43.863 10.4083 44.2732C10.6532 44.6827 11.0174 45.0142 11.5183 45.2795C12.5594 45.8309 14.1025 46.0511 16 46.0511C17.8975 46.0511 19.4406 45.8309 20.4817 45.2795C20.9826 45.0142 21.3468 44.6827 21.5917 44.2732C21.8371 43.863 22 43.3123 22 42.5511C22 41.0363 21.1775 39.0861 19.9089 37.4824C19.2852 36.694 18.5863 36.0324 17.8882 35.5751C17.1832 35.1134 16.5376 34.8972 16 34.8972C15.4624 34.8972 14.8168 35.1134 14.1118 35.5751C13.4137 36.0324 12.7148 36.694 12.0911 37.4824ZM13.016 33.902C13.9218 33.3088 14.9467 32.8972 16 32.8972C17.0533 32.8972 18.0782 33.3088 18.984 33.902C19.8967 34.4998 20.7489 35.3207 21.4775 36.2416C22.9134 38.0568 24 40.4335 24 42.5511C24 43.606 23.7711 44.5259 23.3081 45.2999C22.8446 46.0747 22.1837 46.6412 21.4178 47.0469C19.9254 47.8374 17.9685 48.0511 16 48.0511C14.0315 48.0511 12.0746 47.8374 10.5822 47.0469C9.81631 46.6412 9.1554 46.0747 8.69192 45.2999C8.22889 44.5259 8 43.606 8 42.5511C8 40.4335 9.0866 38.0568 10.5225 36.2416C11.2511 35.3207 12.1033 34.4998 13.016 33.902Z" fill="#8C939C"/>
<path fill-rule="evenodd" clip-rule="evenodd" d="M10.8891 28.0508H21.2143L17.5376 34.5508H14.1062L14.0784 34.4947L9.67747 32.9975L10.3216 31.1041L12.8211 31.9544L10.8891 28.0508ZM15.3479 32.5508H16.3711L17.7852 30.0508H14.1105L15.3479 32.5508Z" fill="#8C939C"/>
<path d="M12.0911 37.4841C10.8225 39.0878 10 41.038 10 42.5528C10 43.314 10.1629 43.8647 10.4083 44.2749C10.6532 44.6844 11.0174 45.0159 11.5183 45.2812C12.5594 45.8326 14.1025 46.0528 16 46.0528C17.8975 46.0528 19.4406 45.8326 20.4817 45.2812C20.9826 45.0159 21.3468 44.6844 21.5917 44.2749C15.6651 44.4531 13.3945 39.1502 13 36.4766C12.6859 36.78 12.3804 37.1184 12.0911 37.4841Z" fill="#DCE1E5"/>
<path fill-rule="evenodd" clip-rule="evenodd" d="M15.3478 32.5508H16.371L17.7852 30.0508H14.1105L15.3478 32.5508Z" fill="#DCE1E5"/>
<path fill-rule="evenodd" clip-rule="evenodd" d="M55 7.15353L38 0.0507812V40.948L55 48.0508V7.15353ZM40 39.5337V3.13637L53 8.56788V44.9652L40 39.5337ZM43 25.6176C43.5523 25.6176 44 24.6823 44 23.5285C44 22.3748 43.5523 21.4395 43 21.4395C42.4477 21.4395 42 22.3748 42 23.5285C42 24.6823 42.4477 25.6176 43 25.6176Z" fill="#8C939C"/>
</g>
<defs>
<clipPath id="clip0">
<path d="M0 0.0507812H64V48.0508H0V0.0507812Z" fill="white"/>
</clipPath>
</defs>
</svg>
